# xmcd
#
# Track frame offsets: 
#        150
#        14402
#        29737
#        44137
#        58335
#        72970
#        87633
#        104330
#        121022
#        137195
#
# Disc length: 2008 seconds
#
# Revision: 2
# Processed by: cddbd v1.5.2PL0 Copyright (c) Steve Scherf et al.
# Submitted via: ExactAudioCopyFreeDBPlugin 1.0
#
DISCID=9907d60a
DTITLE=Glen Campbell - 1975 - Rhinestone Cowboy
DYEAR=1975
DGENRE=Country
TTITLE0=Country Boy (You Got Your Feet In L.A.)
TTITLE1=Comeback
TTITLE2=Count On Me\\
TTITLE3=I Miss You Tonight
TTITLE4=My Girl
TTITLE5=Rhinestone Cowboy
TTITLE6=I'd Build A Bridge
TTITLE7=Pencils For Sale
TTITLE8=Marie
TTITLE9=We're Over
EXTD=YEAR: 1975 ID3G: 2
EXTT0=
EXTT1=
EXTT2=
EXTT3=
EXTT4=
EXTT5=
EXTT6=
EXTT7=
EXTT8=
EXTT9=
PLAYORDER=
